<svg width="458" height="352" fill="none" xmlns="http://www.w3.org/2000/svg"><path d="m152.3 56.1-2.8 4.9h-2.7l-.9 1.4h2.8l-6.1 10.4c-1.3 2.2-.4 4.2 2.1 4.2 1.8 0 3.7-1.3 5.6-3.1 0 3.8 5.3 4.5 8.6.5h.7c1.8 0 4.6-1.1 6.2-2.9-.2-.4-.7-.9-1.1-1l-.2.2c-1.4 1.5-3 2.2-4.6 2.2l2.8-4.8c1.8-3.1.1-6.1-2.7-6.1-2.3 0-4.1.9-5.9 3.9l-1.5 2.6-1.2 2.1-.2.2c-2.2 2.5-4.3 4.5-5.6 4.5-.7 0-1-.5-.3-1.6l6.5-11.2h2.5l.7-1.5h-2.5l2.8-4.9h-3Zm7.5 7.8c1 .1 1.4 1.3.4 3l-2.2 3.7h-.1c-1 0-1.8.8-1.8 1.8 0 .4.1.7.3 1v.1c-1.4 2.4-4.9 2-3.1-1.1l2.3-3.9 1.5-2.4c.9-1.6 2-2.2 2.7-2.2Zm22-7.8L179 61h-2.7l-.9 1.4h2.8L172 72.8c-1.3 2.2-.4 4.2 2.1 4.2 1.2 0 2.5-.6 3.9-1.6l-.8 1.3h3l4.6-7.9c4.6-5.8 6.7-5 5.4-2.8l-3.9 6.7c-1.3 2.2-.4 4.2 2.1 4.2 1.8 0 3.8-1.4 5.7-3.2.1 1.9 1.7 3.2 4.1 3.2 3.4 0 6.8-2.6 9.3-5.5-.2-.4-.7-.9-1.1-1l-.2.2c-2.2 2.5-5 4.5-7.1 4.5-1.9 0-3-1.1-1.6-3.6l.3-.5c1.9.8 5.6.4 7.9-3.4l.4-.7c1.6-2.8.1-4.8-2.4-4.8-2.4 0-4.4 1.3-5.7 3.4l-2.9 5-.2.2c-2.2 2.5-4.3 4.5-5.6 4.5-.7 0-1-.5-.4-1.6l4.4-7.5c1.3-2.3.1-3.9-1.6-3.9-1.3 0-2.7.7-4.2 2.3l4.8-8.3h-3l-8.4 14.4-.2.2c-2.2 2.5-4.3 4.5-5.6 4.5-.7 0-1-.5-.3-1.6l6.5-11.2h2.5l.9-1.4h-2.5l2.8-4.9-3.2-.1Zm21.3 8.2c1-.1 1.5.9.5 2.6l-.4.7c-1.4 2.4-3.4 2.4-4.5 2l1.9-3.4c.7-1.2 1.7-1.8 2.5-1.9Zm44.3-5.4c-1.7 1.5-1.9 3.2-.8 4.6l.3.3c-1.3 1.9-3.1 4.4-5.1 6.7l-.2.2c-1.4 1.5-3 2.2-4.6 2.2l2.8-4.8c1.8-3.1.1-6.1-2.7-6.1-2.3 0-4.1.9-5.9 3.9l-1.5 2.6-1.2 2.1-.2.2c-2.5 2.8-4.6 4.7-7 5.7l6.8-11.4h-1.8c0-1.2-1.3-2.9-3.2-2.9-1.6 0-3.9 1.3-5.2 3.4l-4.2 7.2c-1.3 2.2-.4 4.2 2.1 4.2.8 0 1.9-.4 2.9-1l-.8 1.4c-4.1 1.2-6.6 2.9-6.6 5.1 0 2.9 4.4 3.5 6.6-.2l2.3-3.9c2.4-.7 4.8-2.1 7.2-4.5 0 3.8 5.3 4.6 8.6.5h.7c1.8 0 4.6-1.1 6.2-2.9 1.4-1.7 2.6-3.2 5-6.4l.4.5c.4.5.5 1.1.2 1.7l-3.2 5.5c-1.3 2.2-.4 4.2 2.1 4.2 1.5 0 3.2-1 4.8-2.4-.1 1.4.9 2.4 2.6 2.4.8 0 1.9-.4 2.9-1l-.8 1.4c-4.1 1.2-6.6 2.9-6.6 5.1 0 2.9 4.4 3.5 6.6-.2l2.3-3.9c2.5-.8 4.9-2.2 7.4-4.6.1 1.9 1.7 3.2 4.1 3.2 2.5 0 4.9-1.4 7-3.2-.1 3.9 5.3 4.7 8.6.6h.7c.9 0 2.2-.3 3.4-.9-.8 2.1-.1 3.5 1.7 3.5 1.7 0 3.5-1.5 5-2.9-.3 1.6.7 2.9 2.6 2.9 2.5 0 5.4-2.6 7.9-5.5 1.7-2 3.2-4 4.3-5.4-1.2 3.1-.6 8.7-3.4 8.7-1 0-1.4-1.1-1.4-1.1l-1.9 1s.6 2.4 3.3 2.4c.3 0 .6 0 .8-.1h.1c3.1-.4 6.1-2.8 8.4-5.4-.2-.5-.7-.9-1.1-1l-.2.2c-1.1 1.2-2.3 2.3-3.6 3.2 1-2.8.8-7.2 2.6-11l-2.3-1.2c-1.2 1.7-4 5.6-6.7 8.7l-.2.2c-2.2 2.5-4.3 4.5-5.6 4.5-.7 0-1-.5-.3-1.6l6.4-11.2h-3l-5.4 9.3c-2.3 2.1-4.1 3.2-4.6 3-.8-.3 0-1.4.4-2.1l5.9-10.2h-3l-4.7 8.1-.2.2c-1.4 1.5-3 2.2-4.6 2.2l2.8-4.8c1.8-3.1.1-6.1-2.7-6.1-2.3 0-4.1.9-5.9 3.9l-1.5 2.6-1.2 2.1-.2.2c-2.2 2.5-5 4.5-7.1 4.5-1.9 0-3-1.1-1.6-3.6l.3-.5c1.9.8 5.6.4 7.9-3.4l.4-.7c1.6-2.8.1-4.8-2.4-4.8-2.4 0-4.4 1.3-5.7 3.4l-2.9 5-.2.2c-2.5 2.8-4.6 4.7-7 5.7l6.8-11.4h-1.8c0-1.2-1.3-2.9-3.2-2.9-1.6 0-3.9 1.3-5.2 3.4l-2.9 4.9-.2.2c-2.2 2.5-4.3 4.5-5.6 4.5-.7 0-1-.5-.3-1.6l3-5.2c1-1.8.6-2.9-.4-4l-1.7-2c-.4-.5-.4-1.1.2-1.7l-1.9-1.9Zm-10.3 5c1 .1 1.5 1.3.4 3l-2.2 3.7h-.1c-1 0-1.8.8-1.8 1.8 0 .4.1.7.3 1v.1c-1.4 2.4-4.9 2-3.1-1.1l2.3-3.9 1.5-2.4c.9-1.6 1.9-2.2 2.7-2.2Zm50.2 0c1 .1 1.5 1.3.4 3l-2.2 3.7h-.1c-1 0-1.8.8-1.8 1.8 0 .4.1.7.3 1v.1c-1.4 2.4-4.9 2-3.1-1.1l2.3-3.9 1.5-2.4c.8-1.6 1.9-2.2 2.7-2.2Zm-11.7.4c1-.1 1.5.9.5 2.6l-.4.7c-1.5 2.4-3.4 2.4-4.5 2l1.9-3.4c.7-1.2 1.7-1.8 2.5-1.9Zm-52.4.2c1 0 1.7.9.8 2.4l-2.3 4c-1.8 2.9-3.7 4.3-4.9 4.3-.7 0-1-.5-.3-1.6l4.2-7.3c.7-1.2 1.7-1.8 2.5-1.8Zm38.9 0c1 0 1.7.9.8 2.4l-2.3 4c-1.8 2.9-3.7 4.3-4.9 4.3-.7 0-1-.5-.3-1.6l4.2-7.3c.7-1.2 1.7-1.8 2.5-1.8Zm-45.3 14.9-1.4 2.4c-.6 1.1-1.7.9-1.7.1 0-.7.8-1.6 3.1-2.5Zm38.9 0-1.4 2.4c-.6 1.1-1.7.9-1.7.1.1-.7.8-1.6 3.1-2.5ZM101 67.8h28.9v1.9H101v-1.9Zm227.1 0H357v1.9h-28.9v-1.9Z" fill="#766458"/><path d="M322.7 37.4v7.7h-20.8V.4h20.8V8h-13.2v10.8H320v7.7h-10.5v10.9h13.2ZM289.9.4h7.6v44.7h-7.6v-22l-3 11.4h-7.4l-3-11.4v22h-7.6V.4h7.6l6.8 21.6L289.9.4ZM258 8h-5.5v29.3h5.5V8Zm3-7.6c2.5 0 4.7 2.1 4.7 4.7v35.3c0 2.6-2.2 4.7-4.7 4.7h-11.4c-2.6 0-4.7-2.2-4.7-4.7V5.1c0-2.6 2.1-4.7 4.7-4.7H261Zm-28 28.2 7.7-1.8v13.6c0 2.6-2.2 4.7-4.7 4.7h-11.4c-2.6 0-4.7-2.2-4.7-4.7V5.1c0-2.6 2.1-4.7 4.7-4.7H236c2.5 0 4.7 2.1 4.7 4.7v9.1L233 16V8h-5.5v29.3h5.5v-8.7Zm-16.8 8.8v7.7H198V.4h7.6v37h10.6Zm-21.4 0v7.7H174V.4h20.8V8h-13.2v10.8h10.5v7.7h-10.5v10.9h13.2ZM162.6.4h7.7L169 45.1h-14.5l-2-18.5-2 18.5H136L135 .4h7.6l.6 37h.8l4.8-37h7.6l4.9 37h.8l.5-37Z" fill="#81B3D3"/><path d="m380.817 214.7 25.361-74h25.161l25.661 74h-20.169l-3.694-13.4H404.58l-3.794 13.4h-19.969Zm35.645-52.1-7.488 24.5h20.069l-7.489-24.5-1.198-3.6c-.299-1.3-.599-2.5-.799-3.8-.199-.5-.299-.9-.299-1.3-.1-.5-.2-.9-.2-1.3-.1.4-.199.8-.299 1.3-.1.4-.2.8-.2 1.3-.1.2-.1.3-.1.5 0 .1 0 .2-.1.3-.199 1.1-.499 2.3-.798 3.4-.5 1-.799 2.1-1.099 3.2Zm-117.519 52.1v-74h19.47l27.857 38c.699 1.1 1.398 2.3 1.997 3.5.699 1.2 1.398 2.4 1.997 3.6l1.398 3c.499 1 .898 2 1.398 2.9l-.3-2.4c-.1-.8-.2-1.6-.2-2.4-.199-1.6-.299-3.2-.299-4.8-.1-1.7-.1-3.3-.1-5v-36.3h19.37v74h-19.37l-28.057-38.2c-.799-.9-1.498-2-2.197-3.3-.699-1.3-1.397-2.7-1.997-4.1-.399-1-.898-1.9-1.397-2.9-.4-.9-.699-1.9-1.199-2.8.4 2.4.699 4.8.899 7.3.2 2.5.3 5 .3 7.4v36.5h-19.57Zm-87.865-54.9c3.594-6.6 8.486-11.6 14.877-15.1 6.39-3.5 12.98-5.2 19.869-5.2.899 0 1.897 0 2.796.1.998.1 1.997.2 2.895.2 2.896.4 5.692 1.1 8.487 2.1 2.896 1 5.592 2.3 8.088 3.9 5.492 3.6 9.785 8.3 12.78 14.3 2.996 5.9 4.493 12 4.493 18.5 0 .8 0 1.6-.099 2.4 0 .8-.1 1.5-.2 2.3-.2 1.7-.499 3.3-.899 4.9-.399 1.6-.898 3.1-1.497 4.6-3.295 7.5-8.288 13.4-15.177 17.5-6.889 4.1-14.078 6.2-21.667 6.2-.499 0-1.098 0-1.597-.1h-1.498c-2.696-.2-5.292-.7-7.888-1.4s-5.092-1.7-7.389-2.9c-6.49-3.4-11.582-8.2-15.276-14.5-3.695-6.3-5.592-12.9-5.592-19.7 0-1 0-2 .1-3s.2-2.1.499-3.1c.4-2 .899-4.1 1.598-6 .399-2.2 1.298-4.1 2.297-6Zm52.719 26.6.599-2.4c.199-.9.399-1.7.499-2.6.1-.5.1-1.1.1-1.6.1-.5.1-1 .1-1.5s0-.9-.1-1.4v-1.4c-.4-3.3-1.398-6.5-2.996-9.6-1.597-3.1-3.894-5.5-6.689-7.2-.799-.4-1.498-.7-2.297-1-.799-.3-1.498-.6-2.296-.8-.799-.2-1.498-.3-2.297-.3-.799-.2-1.498-.2-2.296-.2-3.894 0-7.589 1.2-10.884 3.7s-5.691 5.8-6.989 9.9l-.2.5v.5c-.199.7-.399 1.5-.599 2.2-.199.7-.299 1.4-.499 2.2l-.2 1.6v2.4c0 .2 0 .5.1.8.2 4.1 1.498 8 3.695 11.7 2.296 3.6 5.491 6 9.485 7.2l1.398.5c.499.1.998.2 1.498.2l1.397.2h1.398c4.094 0 7.788-1.2 10.983-3.6 3.295-2.6 5.692-5.9 7.09-10Zm-81.975 21.4a32.514 32.514 0 0 1-11.781 5.1c-4.194.9-8.587 1.5-12.881 1.7-1.198.1-2.496.1-3.694.1h-23.764v-74h25.062c1.198 0 2.396 0 3.594.1 4.194.2 8.288.8 12.282 1.7 4.093.9 7.887 2.7 11.282 5.1 4.294 3 7.688 7 10.085 12 2.396 5 3.794 10.1 4.093 15.3.1.5.1.9.1 1.4v2.9c-.199 5.5-1.497 10.8-3.894 15.9-2.396 5.1-5.99 9.4-10.484 12.7Zm-32.35-9.7c.2 0 .499 0 .699.1h.799c.299 0 .599 0 .799.1h3.095c.898-.1 1.697-.2 2.396-.2 1.997-.2 3.994-.5 5.891-1 1.897-.5 3.694-1.4 5.192-2.4 2.496-1.8 4.294-4.2 5.492-7.2 1.198-3.1 1.897-6.3 1.897-9.6v-.9c0-.3 0-.6-.1-.9-.2-2.9-.899-5.8-2.097-8.5-1.198-2.8-2.895-5-5.092-6.6-1.598-1.3-3.495-2.2-5.492-2.7-1.997-.5-3.993-.7-5.99-.8h-7.489v40.6Zm-79.778 16.6v-74h45.331v16.1h-25.56v13h23.962v15.8H89.464v12.5h25.461v16.6h-45.23Zm-59.308-23.8c.1.1.1.2.1.2.1 0 .2 0 .2.1 2.096 2.3 4.492 4.5 7.088 6.5 2.596 1.9 5.691 3 9.086 3.1.1 0 .2 0 .2.1h.3c.1 0 .2 0 .2.1h1.297c.4-.1.7-.2.999-.2 1.198-.2 2.396-.7 3.494-1.4 1.198-.7 2.097-1.5 2.696-2.6l.2-.5.2-.5c.2-.5.3-1 .3-1.5.099-.5.099-.9.099-1.3 0-2.1-.899-3.8-2.796-5.2-1.697-1.4-3.694-2.6-5.79-3.4-.8-.3-1.598-.5-2.397-.7-.7-.2-1.498-.4-2.197-.6h-.2c-.1-.1-.2-.1-.2-.1-3.793-.9-7.388-2.4-10.683-4.4-3.295-2.1-5.591-5.1-6.89-8.9-.199-.8-.498-1.6-.698-2.4-.2-.9-.3-1.8-.3-2.7v-3.4c.1-.6.2-1.2.3-1.9.2-1.6.599-3.1 1.198-4.6.5-1.5 1.198-2.9 2.097-4.2 2.496-4.1 5.691-7 9.485-8.8 3.894-1.8 8.088-2.7 12.281-2.7.999 0 1.997.1 2.996.2l3.295.3c2.796.5 5.591 1.3 8.187 2.3 2.796 1.1 5.292 2.4 7.688 3.8l-6.39 14.3c-2.097-1.5-4.293-2.9-6.59-4.1-2.296-1.2-4.792-1.7-7.488-1.7h-.899c-1.797.2-3.395 1-4.992 2.4-1.498 1.3-2.297 2.7-2.297 4.3v.7c.1.2.2.5.3.7.2.5.4 1 .799 1.5.4.5.798.9 1.298 1.3.898.7 2.096 1.4 3.694 2 1.598.5 3.295 1.1 5.092 1.6 1.498.4 2.896.8 4.294 1.2 1.398.3 2.596.6 3.494.9 4.294 1.5 7.589 4.1 9.785 7.8 2.197 3.6 3.295 7.4 3.395 11.4v.6c0 .5 0 .9-.1 1.4v1.3c-.5 4-1.797 7.9-3.894 11.5-2.097 3.6-4.892 6.4-8.487 8.4-1.298.6-2.696 1.2-4.093 1.6-1.398.4-2.796.7-4.194 1-1.098.2-2.297.4-3.495.5-1.098.2-2.196.2-3.395.2h-1.397c-4.593-.2-9.186-1.2-13.68-3A41.7 41.7 0 0 1 1 205.7l9.386-14.8ZM351.462 338c0-.3.1-.6.2-.9.1-.3.299-.6.499-.8.2-.2.499-.4.799-.6.299-.1.699-.2 1.098-.2.499 0 .899.1 1.298.3.399.2.799.4 1.098.7.2.3.4.6.599 1 .1.4.2.8.2 1.3 0 .9-.2 1.6-.499 2.4-.3.7-.699 1.4-1.298 1.9-.3.3-.499.5-.799.7-.299.2-.599.4-.898.5-.3.1-.5.3-.699.4-.1.1-.2.1-.4.2l-1.398-2c.2-.1.5-.2.799-.4.3-.1.599-.3.899-.5.299-.2.499-.5.699-.8.199-.3.299-.6.299-1-.599 0-1.198-.2-1.697-.6-.599-.3-.799-.8-.799-1.6Zm7.788 0c0-.3.1-.6.2-.9.1-.3.299-.6.499-.8.2-.2.499-.4.799-.6.299-.1.699-.2 1.098-.2.499 0 .899.1 1.298.3.399.2.799.4 1.098.7.2.3.4.6.599 1 .1.4.2.8.2 1.3 0 .8-.1 1.6-.499 2.4-.3.7-.699 1.4-1.298 1.9-.3.3-.499.5-.799.7-.299.2-.599.4-.898.5-.3.1-.5.3-.699.4-.1.1-.2.1-.4.2l-1.298-2c.2-.1.499-.2.799-.4.3-.1.599-.3.899-.5.299-.2.499-.5.699-.8.199-.3.299-.6.299-1-.599 0-1.198-.2-1.697-.6-.699-.3-.899-.8-.899-1.6ZM95.056 279.3c0 .3-.1.6-.2.9-.1.3-.3.6-.5.8-.498.5-1.197.8-1.896.8-.4 0-.899-.1-1.298-.3-.4-.2-.8-.4-1.099-.7-.3-.3-.499-.7-.599-1-.1-.4-.2-.8-.2-1.3 0-.9.2-1.6.5-2.4.3-.7.699-1.4 1.298-1.9.3-.3.499-.5.799-.7.3-.2.599-.4.898-.5.3-.1.5-.3.7-.4.199-.1.299-.1.398-.2l1.299 2c-.3.1-.6.2-.8.4-.299.1-.598.3-.898.5-.3.2-.5.5-.699.8-.2.3-.3.6-.3 1 .7 0 1.199.2 1.698.6.699.4.899.9.899 1.6Zm-7.788 0c0 .6-.2 1.2-.7 1.7-.2.2-.499.4-.798.6-.3.1-.7.2-1.098.2-.4 0-.9-.1-1.298-.3-.4-.2-.8-.4-1.099-.7-.3-.3-.499-.7-.599-1-.1-.4-.2-.8-.2-1.3 0-.9.2-1.6.5-2.4.3-.7.699-1.4 1.298-1.9.2-.2.499-.5.799-.7.299-.2.599-.4.898-.5.3-.1.5-.3.699-.4.2-.1.3-.1.4-.2l1.297 2c-.2.1-.499.2-.798.4-.3.1-.6.3-.899.5-.3.2-.5.5-.699.8-.2.3-.3.6-.3 1 .7 0 1.199.2 1.698.6.599.4.899.9.899 1.6Zm244.924 56.9h3.794l11.782-20.6h-3.794l-11.782 20.6Zm-.1 1.5c-1.198 0-2.197 1-2.197 2.2 0 1.2.899 2.2 2.197 2.2 1.198 0 2.196-.9 2.196-2.2 0-1.3-.998-2.2-2.196-2.2Zm-26.36-5.5 1.099-1.9c4.393-6.1 7.288-4.4 5.99-2.1l-1.797 3.1c-1.098 1.9-4.493 3.3-5.292.9Zm25.062 2.9c-.2-.6-.899-1.2-1.398-1.3l-.3.3c-1.298 1.6-2.895 2.9-4.493 4.1 1.198-3.6.899-9.1 3.295-14l-2.796-1.5c-1.597 2.1-4.992 7.1-8.387 11.1l-.299.3c-2.696 3.2-5.392 5.7-6.989 5.7-.799 0-1.598-.8-1.598-2.5v-1.6c2.696.3 5.492-1.4 7.189-4.5l.998-1.7c3.495-6-2.196-8-6.09-4.5l5.392-9.3h-3.795l-10.783 18.7c-.2-.2-.4-.3-.699-.5l-.3.3c-2.695 3.2-6.19 5.7-8.886 5.7-2.296 0-3.694-1.5-1.997-4.5l3.894-6.8c2.197-3.7 5.991-3.1 3.794.8l-.499.9h3.095l.5-.9c1.997-3.5.099-6.1-2.996-6.1s-5.491 1.6-7.089 4.4l-3.694 6.4c-.1 0-.2-.1-.2-.1l-.3.3c-2.695 3.2-5.391 5.7-6.989 5.7-.799 0-1.298-.6-.399-2.1l8.087-14.1h-3.794l-6.69 11.7c-2.895 2.6-5.092 4.1-5.791 3.7-.898-.4 0-1.8.5-2.6l7.388-12.9h-3.794l-7.289 12.7c-.798.7-2.396 1.4-3.195 1.9 1.198-3.6.899-9.1 3.295-14l-2.796-1.5c-1.597 2.1-10.284 13.7-13.679 17.7.3.5.899.9 1.398 1.3 2.097-2.5 9.286-11.7 10.684-13.5-1.498 3.9-.699 11-4.294 11-1.298 0-1.797-1.4-1.797-1.4l-2.396 1.2s.699 3 4.094 3c.399 0 .699 0 1.098-.1h.1c1.897-.3 4.593-1.1 6.39-2.4 0 1.5.899 2.5 2.496 2.5 2.097 0 4.393-1.9 6.191-3.6-.4 2 .798 3.6 3.195 3.6 2.296 0 4.992-1.9 7.388-4.4 0 2.5 1.997 4.4 5.093 4.4 3.095 0 6.09-1.7 8.686-4l-2.097 3.7h3.795l4.293-7.5v3c0 3.2.599 4.9 3.694 4.9 3.096 0 6.69-3.3 9.785-7 2.097-2.5 3.994-5.1 5.392-6.9-1.498 3.9-.699 11-4.293 11-1.298 0-1.798-1.4-1.798-1.4l-2.396 1.2s.699 3 4.094 3c.399 0 .699 0 1.098-.1h.1c3.994-.5 7.788-3.6 10.584-6.9ZM216.369 334h-.199c-1.198 0-2.197 1-2.197 2.3 0 .5.1.9.399 1.3v.1c-1.797 3-6.09 2.5-3.894-1.5l2.896-5 1.797-3.1c2.696-4.5 6.291-2.7 3.994 1.2l-2.796 4.7Zm-25.361 14.2c-.798 1.4-2.096 1.2-2.096.2s.898-2.1 3.794-3.2l-1.698 3Zm-28.756-13.8c-2.296 3.6-4.493 5.3-6.09 5.3-.799 0-1.298-.6-.4-2.1l5.292-9.2c1.997-3.5 6.091-2.6 4.194.8l-2.996 5.2Zm-11.981-14.7c1.098-1.9 2.396-2.8 3.395-2.8 1.397 0 2.096.9 2.096 2.3 0 3.5-4.393 10.8-10.184 9.9h-.799l5.492-9.4Zm92.658 14.1-.3.3c-2.696 3.2-5.392 5.7-6.989 5.7-.799 0-1.298-.6-.4-2.1l5.392-9.6c1.598-2.9.1-4.9-1.997-4.9-1.597 0-3.295.9-5.192 2.8l1.398-2.5h-3.794l-6.091 10.5c-.199-.1-.299-.2-.499-.3l-.3.3c-1.697 1.9-3.794 2.8-5.691 2.8l3.595-6.1c2.296-4 .199-7.7-3.395-7.7-2.896 0-5.192 1.2-7.289 4.9l-1.897 3.2-1.598 2.8c-.099-.1-.199-.1-.299-.2l-.3.3c-3.095 3.6-5.791 5.9-8.786 7.2l10.384-17.7h-3.794l-6.69 11.6c-2.896 2.7-5.192 4.2-5.891 3.9-.899-.4 0-1.8.499-2.6l7.389-12.9H196.6l-5.991 10.4c-.1-.1-.2-.1-.3-.2l-.299.3c-2.696 3.2-5.392 5.7-6.989 5.7-.799 0-1.298-.6-.4-2.1l5.392-9.6c1.597-2.9.1-4.9-1.997-4.9-1.598 0-3.295.9-5.192 2.8l1.398-2.5h-3.794l-5.991 10.4c-.1-.1-.2-.1-.4-.2l-.299.3c-2.696 3.2-5.392 5.7-6.989 5.7-.799 0-1.298-.6-.4-2.1l6.091-10.7h-2.097c.1-1.6-1.498-3.8-3.994-3.8-1.997 0-4.892 1.6-6.49 4.4l-3.894 6.7c-.299-.2-.599-.4-.799-.5l-.299.3c-2.696 3.2-4.793 5.7-8.587 5.7-2.596 0-4.094-2.6-1.897-6.4l1.098-1.9c.699.1 1.398.2 2.097.2 3.994 0 8.587-2.1 11.582-7.3 1.099-1.9 1.498-3.6 1.498-5.1 0-3.4-2.197-5.6-4.992-5.6-2.097 0-4.493 1.5-6.191 4.4l-5.891 10.1c-2.196-1.2-3.395-3.3-3.395-5.4 0-1.7.799-3.5 2.397-4.8l-1.198-2.2c-2.696 1.9-3.894 4.5-3.894 7 0 3 1.697 5.9 4.792 7.5l-1.098 2c-2.696 4.6-1.098 9.7 4.193 9.7 4.194 0 6.091-1.9 8.687-4.4-.799 2.4.399 4.4 2.996 4.4 1.497 0 3.394-1 5.192-2.5.199 1.5 1.298 2.5 3.294 2.5 1.798 0 3.795-1.1 5.692-2.8l-1.398 2.4h3.794l5.791-10.1c5.791-7.2 8.387-6.3 6.69-3.5l-4.893 8.5c-1.597 2.8-.499 5.4 2.596 5.4 1.997 0 4.294-1.4 6.391-3.4-.5 2.1.499 3.4 2.396 3.4 1.797 0 3.894-1.5 5.591-3l-2.096 3.6c-5.093 1.5-8.288 3.6-8.288 6.5 0 3.6 5.592 4.4 8.288-.3l2.895-5c3.195-1 6.29-3 9.486-6.2-.5 5.3 6.49 6.5 10.683 1.1h.799c1.398 0 3.195-.5 4.892-1.5l-2.496 4.4h3.794l5.792-10.1c5.791-7.2 8.387-6.3 6.689-3.5l-4.892 8.5c-1.598 2.8-.499 5.4 2.596 5.4s6.69-3.3 9.785-7c-.1 0-.699-.6-1.198-.8Zm118.418-35.6c-2.297 3.7-4.593 5.5-6.191 5.5-.798 0-1.298-.6-.399-2.1l5.292-9.2c1.997-3.5 6.09-2.6 4.193.8l-2.895 5Zm-36.145.2c-2.296 3.6-4.493 5.3-6.09 5.3-.799 0-1.298-.6-.4-2.1l5.292-9.2c1.997-3.5 6.091-2.6 4.194.8l-2.996 5.2Zm-39.839 13.8c-.798 1.4-2.096 1.2-2.096.2s.898-2.1 3.794-3.2l-1.698 3Zm7.988-28.5c1.099-1.9 2.397-2.8 3.395-2.8 5.991 0 1.498 14.4-8.088 12.2h-.798l5.491-9.4Zm77.581 14.1-.299.3c-2.696 3.2-5.392 5.7-6.99 5.7-.798 0-1.298-.6-.399-2.1l12.78-22.1h-3.794l-5.591 9.6c-.699-1.1-1.897-2-3.495-2-1.997 0-4.892 1.6-6.49 4.4l-3.694 6.4c-.1 0-.2-.1-.2-.1l-.3.3c-2.695 3.2-4.992 5.7-6.689 5.7-.799 0-1.298-.6-.4-2.1l5.492-9.6c1.598-2.9.1-4.9-1.997-4.9-1.598 0-3.295.9-5.192 2.8l1.398-2.5h-3.794l-5.991 10.4c-.1-.1-.2-.1-.4-.2l-.299.3c-2.696 3.2-5.392 5.7-6.989 5.7-.799 0-1.298-.6-.4-2.1l6.091-10.7h-2.097c.1-1.6-1.498-3.8-3.994-3.8-1.997 0-4.892 1.6-6.49 4.4l-3.694 6.3-.2.2c-2.696 3.2-5.791 5.7-7.388 5.7-.799 0-1.298-.6-.4-2.1l3.794-6.6c1.298-2.3.699-3.6-.499-5.1l-2.097-2.5c-.499-.7-.499-1.5.2-2.2l-1.997-2.1c-2.097 1.9-2.296 4.1-.998 5.8l.299.4c-1.697 2.4-3.894 5.6-6.39 8.5l.3.3c-3.096 3.6-5.792 5.9-8.687 7.2l4.792-8.2h-3.794l-.399.7c-1.997 3.5-4.293 6-7.189 6-2.596 0-2.995-2.6-.799-6.4l1.098-1.9c.699.1 1.398.2 2.097.2 13.38 0 19.87-18 8.088-18-2.097 0-4.493 1.5-6.191 4.4l-5.891 10.1c-2.196-1.2-3.394-3.3-3.394-5.4 0-1.7.798-3.5 2.396-4.8l-1.198-2.2c-2.696 1.9-3.894 4.5-3.894 7 0 3 1.697 5.9 4.792 7.5l-1.098 2c-2.696 4.6-2.197 9.7 3.195 9.7 1.598 0 2.896-.5 4.094-1.2l-.999 1.7c-5.092 1.6-8.287 3.6-8.287 6.5 0 3.6 5.592 4.4 8.287-.3l2.896-5c3.894-1.2 7.788-3.9 11.882-8.7-.1-.1-.1-.2-.2-.4 1.697-2 3.095-3.9 5.991-7.7l.499.6c.499.6.699 1.4.2 2.1l-3.994 6.9c-1.598 2.8-.499 5.4 2.596 5.4 1.897 0 4.293-1.2 6.39-3 0 1.7 1.098 3 3.295 3 1.498 0 3.395-1 5.192-2.5.2 1.5 1.298 2.5 3.295 2.5 1.797 0 3.794-1.1 5.691-2.8l-1.398 2.4h3.795l5.791-10.1c5.791-7.2 8.387-6.3 6.689-3.5l-4.892 8.5c-1.598 2.8-.499 5.4 2.596 5.4 1.997 0 3.794-1.4 5.991-3.3-.2 1.9.998 3.3 3.295 3.3 1.497 0 3.395-1 5.192-2.5.199 1.5 1.298 2.5 3.295 2.5 3.095 0 6.689-3.3 9.785-7-.5-.3-1.099-.9-1.598-1.1Zm-112.128-5.3c2.197-3.7 5.991-3.1 3.794.8l-.499.9c-1.797 3.1-4.293 3-5.691 2.5l2.396-4.2Zm-2.995 13.6c4.293 0 8.487-3.3 11.682-7-.3-.5-.899-1.1-1.398-1.3l-.299.3c-2.696 3.2-6.191 5.7-8.887 5.7-2.296 0-3.694-1.5-1.997-4.5l.4-.7c2.396 1 6.989.5 9.785-4.4l.499-.9c1.997-3.5.1-6.1-2.996-6.1-2.995 0-5.491 1.6-7.089 4.4l-3.694 6.3s-.1 0-.1-.1l-.299.3c-2.696 3.2-5.392 5.7-6.99 5.7-.798 0-1.298-.6-.399-2.1l5.392-9.6c1.597-2.9.1-4.9-1.997-4.9-1.598 0-3.395.9-5.292 2.9l5.991-10.5h-3.795l-10.683 18.5c-.1-.1-.3-.2-.4-.3l-.299.3c-2.696 3.2-5.392 5.7-6.989 5.7-.799 0-1.298-.6-.4-2.1l8.088-14.1h3.095l1.098-1.8h-3.095l3.595-6.2h-3.795l-3.594 6.2h-3.395l-1.098 1.8h3.395l-7.589 13.2c-1.597 2.8-.499 5.4 2.596 5.4 1.897 0 3.894-1.2 5.891-3l-1.497 2.6h3.794l5.691-10c5.791-7.3 8.387-6.4 6.79-3.6l-4.893 8.5c-1.597 2.8-.499 5.4 2.596 5.4 2.297 0 4.793-1.8 7.289-4.2.2 2.4 2.197 4.2 5.292 4.2Zm-127.305-13.6c2.197-3.7 5.991-3.1 3.794.8l-.499.9c-1.797 3.1-4.293 3-5.691 2.5l2.396-4.2Zm23.065 9.2 5.292-9.2c1.997-3.5 6.09-2.6 4.193.8l-2.895 5.2c-2.297 3.6-4.493 5.3-6.091 5.3-.899-.1-1.398-.6-.499-2.1Zm53.917-9.2c2.197-3.7 5.991-3.1 3.794.8l-.499.9c-1.797 3.1-4.194 3-5.691 2.5l2.396-4.2Zm-57.711 9.5c-.599 2.2.599 4.1 3.095 4.1 1.498 0 3.395-1 5.192-2.5.2 1.5 1.298 2.5 3.295 2.5 1.997 0 4.193-1.4 6.39-3.3-.399 2 .499 3.3 2.396 3.3 2.097 0 4.394-1.9 6.191-3.6-.399 2 .799 3.6 3.195 3.6 3.095 0 6.69-3.3 9.785-7 0 0-.1-.1-.1-.2 2.097-2.4 3.894-5 5.192-6.8-1.498 3.9-.699 11-4.293 11-1.298 0-1.797-1.4-1.797-1.4l-2.397 1.2s.699 3.1 4.094 3.1c.399 0 .699 0 1.098-.1h.1c2.796-.4 5.492-2.1 7.888-4.2.1 2.5 1.997 4.3 5.092 4.3 4.294 0 8.487-3.3 11.682-7-.299-.5-.898-1.1-1.398-1.3l-.299.3c-2.696 3.2-6.191 5.7-8.887 5.7-2.296 0-3.694-1.5-1.996-4.5l.399-.7c2.396 1 6.989.5 9.785-4.4l.499-.9c1.997-3.5.1-6.1-2.995-6.1-3.096 0-5.492 1.6-7.089 4.4l-3.695 6.3h-.1l-.299.3c-1.298 1.6-2.896 2.9-4.493 4.1 1.198-3.6.898-9.1 3.295-14l-2.796-1.5c-1.598 2.1-4.992 7.1-8.387 11.1l.1.1-.1.2c-2.696 3.2-5.392 5.7-6.989 5.7-.799 0-1.298-.6-.4-2.1l8.088-14.1h-3.794l-6.69 11.7c-2.896 2.6-5.092 4.1-5.791 3.7-.899-.4 0-1.8.499-2.6l7.389-12.9h-3.794l-5.991 10.4c-.1-.1-.2-.1-.3-.2l-.299.3c-2.696 3.2-5.392 5.7-6.99 5.7-.798 0-1.298-.6-.399-2.1l6.091-10.7h-2.097c.1-1.6-1.498-3.8-3.994-3.8-1.997 0-4.893 1.6-6.49 4.4l-3.794 6.6c-.2-.1-.4-.3-.599-.4l-.3.3c-2.696 3.2-5.891 5.7-8.487 5.7-2.296 0-3.694-1.5-1.997-4.5l3.894-6.8c2.197-3.7 5.991-3.1 3.794.8l-.499.9h3.095l.5-.9c1.997-3.5.1-6.1-2.996-6.1-3.095 0-5.092 1.6-6.689 4.4l-3.795 6.4c-.099-.1-.199-.1-.299-.2l-.3.3c-2.696 3.2-5.891 5.7-8.587 5.7-2.296 0-3.694-1.5-1.996-4.5l.399-.7c2.396 1 6.989.5 9.785-4.4l.499-.9c1.997-3.5.1-6.1-2.995-6.1s-5.492 1.6-7.089 4.4l-3.994 6.8c-2.397 4-.3 7.7 4.093 7.7 3.295 0 5.991-2 8.787-4.6-.1 2.6 1.897 4.6 5.092 4.6 3.395.1 6.091-1.7 8.787-4Zm-36.844-14 3.095-5.2c2.796-4.8 6.291-2 4.394 1.6-1.498 2.7-3.595 3.6-7.489 3.6Zm-4.093 17.3c-2.297 0-3.994-.5-5.392-1.3.699-.8 1.298-1.7 1.897-2.7l6.39-11 .999.1c8.786 1.8 5.291 14.9-3.894 14.9Zm9.385-15.5c7.588-2.6 8.188-12.1.699-12.1-2.097 0-4.493 1.5-6.19 4.4l-10.185 17.6c-.399.8-.898 1.5-1.498 2.1-2.596-3.6-1.897-9 1.798-11.3l-1.498-1.9c-7.888 5-5.591 19.6 7.588 19.6 11.283 0 16.475-13.6 9.286-18.4Z" fill="#fff"/></svg>